# xmcd
#
# Track frame offsets: 
#        150
#        16302
#        32755
#        49970
#        66220
#        88802
#        102082
#        118490
#        140655
#        155232
#        181910
#        196172
#
# Disc length: 2695 seconds
#
# Revision: 0
# Processed by: cddbd v1.5.2PL0 Copyright (c) Steve Scherf et al.
# Submitted via: ExactAudioCopy v1.3
#
DISCID=ad0a850c
DTITLE=Mitch Woods and His Rocket 88's - Jump For Joy
DYEAR=2001
DGENRE=Piano Blues, Soul Jazz
TTITLE0=Jump In The Groove And Go
TTITLE1=Swingin' At The Savoy
TTITLE2=Broke
TTITLE3=Jive, Mr. Boogie
TTITLE4=Easy Street
TTITLE5=Walk Across Texas
TTITLE6=Golden Gate Jump
TTITLE7=Not A Bad Part Of My Life (To B
TTITLE8=Palm Tree Tie
TTITLE9=Jump For Joy
TTITLE10=Straight Eight
TTITLE11=Dr. Daddy-O Signs Off
EXTD=
EXTT0=
EXTT1=
EXTT2=
EXTT3=
EXTT4=
EXTT5=
EXTT6=
EXTT7=
EXTT8=
EXTT9=
EXTT10=
EXTT11=
PLAYORDER=
